<?xml version="1.0" encoding="utf-8"?>
<!-- Generator: Adobe Illustrator 13.0.0, SVG Export Plug-In . SVG Version: 6.00 Build 14948)  -->
<svg version="1.2" baseProfile="tiny" id="Layer_1" xmlns="http://www.w3.org/2000/svg" xmlns:xlink="http://www.w3.org/1999/xlink"
	 x="0px" y="0px" width="64px" height="64px" viewBox="0 0 64 64" xml:space="preserve">
<circle fill="none" stroke="#BE7096" stroke-width="8" cx="32" cy="32" r="28"/>
<path fill="#BE7096" d="M35.029,14.168c-0.746-0.749-1.705-1.139-2.684-1.206c-0.117-0.01-0.227-0.035-0.345-0.035
	c-0.117,0-0.228,0.025-0.342,0.035c-0.979,0.066-1.941,0.457-2.689,1.206L15.855,27.319c-1.642,1.646-1.642,4.313,0,5.958
	c1.642,1.643,4.304,1.643,5.946,0l6.053-6.07v19.719c0,2.289,1.856,4.146,4.146,4.146s4.146-1.857,4.146-4.146V27.207l6.054,6.07
	c1.64,1.643,4.303,1.643,5.942,0c1.645-1.646,1.645-4.313,0-5.958L35.029,14.168z"/>
</svg>
