<?xml version="1.0" encoding="utf-8"?>
<!-- Generator: Adobe Illustrator 13.0.0, SVG Export Plug-In . SVG Version: 6.00 Build 14948)  -->
<!DOCTYPE svg PUBLIC "-//W3C//DTD SVG 1.1//EN" "http://www.w3.org/Graphics/SVG/1.1/DTD/svg11.dtd">
<svg version="1.1" id="Capa_1" xmlns="http://www.w3.org/2000/svg" xmlns:xlink="http://www.w3.org/1999/xlink" x="0px" y="0px"
	 width="512px" height="512px" viewBox="0 0 512 512" enable-background="new 0 0 512 512" xml:space="preserve">
<g>
	<path fill="#BE7096" d="M335.398,79.422c-19.914,0-39,3.483-56.853,9.576c21.283,13.224,39.827,30.376,54.676,50.485
		c0.738-0.033,1.457-0.109,2.177-0.109c64.045,0,116.151,52.077,116.151,116.139c0,64.063-52.106,116.127-116.151,116.127
		c-64.033,0-116.125-52.109-116.125-116.148c0-25.881,8.614-49.691,22.952-69.034c-14.626-14.137-33.74-23.311-54.941-25.936
		c-17.62,27.402-27.963,59.963-27.963,94.97c0,97.234,78.828,176.085,176.097,176.085c97.252,0,176.079-78.815,176.079-176.085
		C511.512,158.229,432.641,79.422,335.398,79.422z"/>
	<path fill="#BE7096" d="M175.563,431.576c19.914,0,39.001-3.479,56.854-9.564c-21.299-13.219-39.843-30.369-54.681-50.502
		c-0.75,0.021-1.439,0.143-2.174,0.143c-64.034,0-116.149-52.1-116.149-116.146c0-64.062,52.104-116.117,116.149-116.117
		c64.023,0,116.127,52.078,116.127,116.117c0,25.875-8.601,49.684-22.945,69.04c14.609,14.119,33.74,23.313,54.938,25.914
		c17.645-27.399,27.979-59.944,27.979-94.954c0-97.241-78.828-176.08-176.097-176.08C78.307,79.4-0.5,158.25-0.5,255.492
		C-0.5,352.729,78.317,431.576,175.563,431.576z"/>
</g>
</svg>
